<?xml version="1.0" standalone="no"?>
<!DOCTYPE svg PUBLIC "-//W3C//DTD SVG 20010904//EN"
 "http://www.w3.org/TR/2001/REC-SVG-20010904/DTD/svg10.dtd">
<svg version="1.0" xmlns="http://www.w3.org/2000/svg"
 width="512.000000pt" height="512.000000pt" viewBox="0 0 512.000000 512.000000"
 preserveAspectRatio="xMidYMid meet">
<metadata>
Created by potrace 1.14, written by Peter Selinger 2001-2017
</metadata>
<g transform="translate(0.000000,512.000000) scale(0.100000,-0.100000)"
fill="#000000" stroke="none">
<path d="M0 2560 l0 -2560 2560 0 2560 0 0 2560 0 2560 -2560 0 -2560 0 0
-2560z m1547 628 c4 -7 91 -249 193 -537 102 -289 190 -526 195 -528 6 -1 88
221 184 495 96 273 183 517 193 541 l18 43 273 -4 c272 -4 272 -4 357 -35 47
-16 93 -33 102 -37 15 -7 16 -4 8 26 -6 18 -10 36 -10 41 0 4 35 7 78 5 l77
-3 134 -523 c74 -287 138 -519 142 -515 4 4 62 217 129 473 66 256 128 489
136 518 l15 53 86 -3 87 -3 133 -510 c144 -549 141 -540 148 -533 3 3 65 239
139 524 l133 519 76 3 c58 2 77 0 77 -10 0 -7 -78 -296 -173 -643 l-173 -630
-77 -3 c-73 -3 -78 -1 -86 20 -5 13 -68 239 -141 503 -73 264 -136 484 -140
488 -10 11 -9 16 -155 -513 -69 -250 -130 -465 -135 -478 -9 -21 -15 -23 -86
-20 l-77 3 -49 180 c-27 98 -50 181 -52 183 -2 2 -19 -27 -37 -65 -44 -90
-142 -189 -229 -231 -120 -58 -168 -65 -450 -66 l-255 -1 -5 421 -5 422 -155
-422 -155 -421 -80 0 -80 0 -214 583 c-118 320 -217 582 -220 582 -3 -1 -160
-231 -349 -513 l-343 -512 351 -3 351 -2 -3 -68 -3 -67 -440 0 -440 0 -3 53
-3 53 346 517 346 517 -346 3 -345 2 0 70 0 70 499 0 c389 0 502 -3 508 -12z"/>
<path d="M2490 2556 l0 -506 133 0 c226 0 330 28 422 111 103 95 151 239 142
434 -10 231 -99 373 -274 437 -49 18 -87 22 -240 26 l-183 4 0 -506z"/>
</g>
</svg>
